<?xml version="1.0" encoding="UTF-8"?>
<svg width="22px" height="14px" viewBox="0 0 22 14" version="1.1" xmlns="http://www.w3.org/2000/svg" xmlns:xlink="http://www.w3.org/1999/xlink">
    <title>icon / eye / on</title>
    <g id="Symbols" stroke="none" stroke-width="1" fill="none" fill-rule="evenodd">
        <g id="form-/-form-group" transform="translate(-311.000000, -59.000000)">
            <g id="form" transform="translate(0.000000, 42.000000)">
                <g id="Group" transform="translate(310.000000, 12.000000)">
                    <g id="eye" transform="translate(2.000000, 5.111111)">
                        <path d="M20,6.88888889 C20,6.88888889 17,12.8888889 10,12.8888889 C3,12.8888889 0,6.88888889 0,6.88888889 C0,6.88888889 3,0.888888889 10,0.888888889 C17,0.888888889 20,6.88888889 20,6.88888889 Z" id="Path" stroke="#8F8F8F" stroke-linecap="round" stroke-linejoin="round"></path>
                        <path d="M10,2.88888889 C12.209139,2.88888889 14,4.67974989 14,6.88888889 C14,9.09802789 12.209139,10.8888889 10,10.8888889 C7.790861,10.8888889 6,9.09802789 6,6.88888889 C6,4.67974989 7.790861,2.88888889 10,2.88888889 Z M11.5,3.88888889 C10.6715729,3.88888889 10,4.56046176 10,5.38888889 C10,6.21731601 10.6715729,6.88888889 11.5,6.88888889 C12.3284271,6.88888889 13,6.21731601 13,5.38888889 C13,4.56046176 12.3284271,3.88888889 11.5,3.88888889 Z" id="Combined-Shape" fill="#8F8F8F"></path>
                    </g>
                </g>
            </g>
        </g>
    </g>
</svg>