<?xml version="1.0" encoding="UTF-8"?>
<svg width="20px" height="20px" viewBox="0 0 20 20" version="1.1" xmlns="http://www.w3.org/2000/svg" xmlns:xlink="http://www.w3.org/1999/xlink">
    <title>icon / hint</title>
    <g id="Design-Comprehensive-Layout" stroke="none" stroke-width="1" fill="none" fill-rule="evenodd">
        <g id="0-0-2初回起動時ログイン画面-通常" transform="translate(-32.000000, -582.000000)">
            <g id="Group-3" transform="translate(16.000000, 562.000000)">
                <g id="contents" transform="translate(16.000000, 19.000000)">
                    <g id="icon-/-hint" transform="translate(0.000000, 1.000000)">
                        <circle id="Oval" stroke="#8F8F8F" cx="10" cy="10" r="9.5"></circle>
                        <path d="M10.59,12.03 L10.59,11.37 C10.59,11.16 10.6,10.985 10.62,10.845 C10.64,10.705 10.6775,10.5775 10.7325,10.4625 C10.7875,10.3475 10.8625,10.2375 10.9575,10.1325 C11.0525,10.0275 11.18,9.9 11.34,9.75 L11.34,9.75 L11.49,9.615 L12.39,8.685 C12.59,8.435 12.745,8.1675 12.855,7.8825 C12.965,7.5975 13.02,7.265 13.02,6.885 C13.02,6.445 12.9425,6.0525 12.7875,5.7075 C12.6325,5.3625 12.42,5.0725 12.15,4.8375 C11.88,4.6025 11.5625,4.4225 11.1975,4.2975 C10.8325,4.1725 10.44,4.11 10.02,4.11 C9.14,4.11 8.4025,4.3575 7.8075,4.8525 C7.2125,5.3475 6.85,6.03 6.72,6.9 L6.72,6.9 L8.25,7.05 C8.31,6.55 8.4925,6.145 8.7975,5.835 C9.1025,5.525 9.5,5.37 9.99,5.37 C10.21,5.37 10.4175,5.41 10.6125,5.49 C10.8075,5.57 10.975,5.68 11.115,5.82 C11.255,5.96 11.3675,6.1275 11.4525,6.3225 C11.5375,6.5175 11.58,6.73 11.58,6.96 C11.58,7.19 11.5375,7.3975 11.4525,7.5825 C11.3675,7.7675 11.26,7.9425 11.13,8.1075 C11,8.2725 10.855,8.4325 10.695,8.5875 C10.535,8.7425 10.375,8.895 10.215,9.045 C10.015,9.235 9.8475,9.3975 9.7125,9.5325 C9.5775,9.6675 9.47,9.8075 9.39,9.9525 C9.31,10.0975 9.25,10.26 9.21,10.44 C9.17,10.62 9.15,10.845 9.15,11.115 L9.15,11.115 L9.15,12.03 L10.59,12.03 Z M9.855,15.09 C10.125,15.09 10.3575,14.9925 10.5525,14.7975 C10.7475,14.6025 10.845,14.37 10.845,14.1 C10.845,13.83 10.7475,13.5975 10.5525,13.4025 C10.3575,13.2075 10.125,13.11 9.855,13.11 C9.585,13.11 9.3525,13.2075 9.1575,13.4025 C8.9625,13.5975 8.865,13.83 8.865,14.1 C8.865,14.37 8.9625,14.6025 9.1575,14.7975 C9.3525,14.9925 9.585,15.09 9.855,15.09 Z" id="?" fill="#8F8F8F" fill-rule="nonzero"></path>
                    </g>
                </g>
            </g>
        </g>
    </g>
</svg>