<?xml version="1.0" encoding="UTF-8"?>
<svg width="32px" height="32px" viewBox="0 0 32 32" version="1.1" xmlns="http://www.w3.org/2000/svg" xmlns:xlink="http://www.w3.org/1999/xlink">
    <title>icon / plus</title>
    <g id="Symbols" stroke="none" stroke-width="1" fill="none" fill-rule="evenodd">
        <g id="icon-/-plus">
            <rect id="Rectangle" x="0" y="0" width="32" height="32"></rect>
            <path d="M17.7973568,24 C18.0088106,24 18.1497797,23.8590308 18.1497797,23.6475771 L18.1497797,18.2907489 C18.1497797,18.1497797 18.2202643,18.0792952 18.3612335,18.0792952 L23.6475771,18.0792952 C23.8590308,18.0792952 24,17.938326 24,17.7268722 L24,14.2731278 C24,14.061674 23.8590308,13.9207048 23.6475771,13.9207048 L18.3612335,13.9207048 C18.2202643,13.9207048 18.1497797,13.8502203 18.1497797,13.7092511 L18.1497797,8.35242291 C18.1497797,8.14096916 18.0088106,8 17.7973568,8 L14.2026432,8 C13.9911894,8 13.8502203,8.14096916 13.8502203,8.35242291 L13.8502203,13.7092511 C13.8502203,13.8502203 13.7797357,13.9207048 13.6387665,13.9207048 L8.35242291,13.9207048 C8.14096916,13.9207048 8,14.061674 8,14.2731278 L8,17.7268722 C8,17.938326 8.14096916,18.0792952 8.35242291,18.0792952 L13.6387665,18.0792952 C13.7797357,18.0792952 13.8502203,18.1497797 13.8502203,18.2907489 L13.8502203,23.6475771 C13.8502203,23.8590308 13.9911894,24 14.2026432,24 L17.7973568,24 Z" id="+" fill="#FFFFFF"></path>
        </g>
    </g>
</svg>