<?xml version="1.0" encoding="UTF-8"?>
<svg width="129px" height="43px" viewBox="0 0 129 43" version="1.1" xmlns="http://www.w3.org/2000/svg" xmlns:xlink="http://www.w3.org/1999/xlink">
    <title>Illust1</title>
    <g id="Design-Comprehensive-Layout" stroke="none" stroke-width="1" fill="none" fill-rule="evenodd">
        <g id="0-4-6口座開設4-取引動機選択" transform="translate(-214.000000, -764.000000)">
            <g id="contents" transform="translate(16.000000, 176.000000)">
                <g id="block-/-current" transform="translate(0.000000, 505.000000)">
                    <g id="block" transform="translate(16.000000, 16.000000)">
                        <g id="wrap" transform="translate(0.000000, 36.000000)">
                            <g id="Illust1" transform="translate(183.000000, 32.000000)">
                                <polyline id="Path-10" stroke="#222222" points="0 40.9962257 48.3691212 39 71.7564935 39.9981128 85.2556087 40.9962257 116 40.9962257 128 40.9962257"></polyline>
                                <g id="Group-19" transform="translate(34.000000, 20.500000) scale(-1, 1) translate(-34.000000, -20.500000) translate(2.000000, 0.000000)">
                                    <circle id="Oval" stroke="#222222" stroke-width="0.9968" fill="#43DEB1" cx="11.1999996" cy="28.8000004" r="10.3016004"></circle>
                                    <circle id="Oval-Copy-10" stroke="#222222" stroke-width="0.9968" fill="#43DEB1" cx="53.1999996" cy="30.0000012" r="10.3016004"></circle>
                                    <polyline id="Path-7" stroke="#222222" stroke-linecap="round" stroke-linejoin="round" points="11.7999992 28.8000011 22.7188261 0 31 0"></polyline>
                                    <polygon id="Path-8" stroke="#222222" stroke-linecap="round" stroke-linejoin="round" points="19.3999987 10 40.7920988 10 53 29.2000008 30.8050063 29.2000008"></polygon>
                                    <line x1="32.2000012" y1="28.8000011" x2="44.2000017" y2="7.20000029" id="Path-9" stroke="#222222" stroke-linecap="round" stroke-linejoin="round"></line>
                                    <rect id="Rectangle" stroke="#222222" stroke-width="0.768000065" fill="#43DEB1" x="39.4000015" y="4.80000019" width="10.8000004" height="2.4000001" rx="0.614400052"></rect>
                                    <circle id="Oval-Copy-7" fill="#222222" cx="53.3999974" cy="29.8000001" r="1.80000007"></circle>
                                    <circle id="Oval-Copy-8" fill="#222222" cx="11.2000004" cy="29.4000012" r="1.80000007"></circle>
                                </g>
                            </g>
                        </g>
                    </g>
                </g>
            </g>
        </g>
    </g>
</svg>