<?xml version="1.0" encoding="UTF-8"?>
<svg width="129px" height="66px" viewBox="0 0 129 66" version="1.1" xmlns="http://www.w3.org/2000/svg" xmlns:xlink="http://www.w3.org/1999/xlink">
    <title>Illust2</title>
    <g id="Design-Comprehensive-Layout" stroke="none" stroke-width="1" fill="none" fill-rule="evenodd">
        <g id="0-4-6口座開設4-取引動機選択" transform="translate(-214.000000, -837.000000)">
            <g id="contents" transform="translate(16.000000, 176.000000)">
                <g id="block-/-current" transform="translate(0.000000, 505.000000)">
                    <g id="block" transform="translate(16.000000, 16.000000)">
                        <g id="wrap" transform="translate(0.000000, 36.000000)">
                            <g id="Illust2" transform="translate(246.500000, 137.082019) scale(-1, 1) translate(-246.500000, -137.082019) translate(182.000000, 104.582019)">
                                <g id="Group-2" transform="translate(87.500000, 28.417981) rotate(17.000000) translate(-87.500000, -28.417981) translate(50.000000, 10.417981)">
                                    <path d="M56.6636894,0.539999989 C59.4936935,0.539999989 62.0557814,1.6870858 63.9103682,3.54167265 C65.7649551,5.3962595 66.9120409,7.95834738 66.9120409,10.7883515 C69.1448843,11.6836138 70.7326658,12.6521029 71.8613472,14.0012203 C72.9574779,15.3114296 73.6199985,16.9814281 73.6199985,18.8063996 L73.6199985,18.8063996 L73.6199985,27.3599995 C73.6199985,28.0061726 73.3580851,28.5911726 72.9346284,29.0146293 C72.5111717,29.438086 71.9261717,29.6999994 71.2799986,29.6999994 L71.2799986,29.6999994 L2.87999994,29.6999994 C2.2338268,29.6999994 1.64882681,29.438086 1.22537011,29.0146293 C0.801913405,28.5911726 0.539999989,28.0061726 0.539999989,27.3599995 L0.539999989,27.3599995 L0.539999989,20.5631996 C0.539999989,18.040142 1.56267114,15.755942 3.2161067,14.1025065 C4.86954225,12.4490709 7.15374221,11.4263998 9.67684543,11.4263998 L9.67684543,11.4263998 L14.6204797,11.4259821 L21.9899397,4.6089622 C24.8175873,1.99304283 28.5279273,0.539999989 32.3800209,0.539999989 L32.3800209,0.539999989 Z" id="Combined-Shape" stroke="#222222" stroke-width="1.07999998" fill="#FFFFFF"></path>
                                    <circle id="Oval" stroke="#222222" fill="#43DEB1" cx="14.0399997" cy="26.9999995" r="7.77999984"></circle>
                                    <circle id="Oval-Copy-2" stroke="#222222" fill="#43DEB1" cx="60.1199988" cy="26.9999995" r="7.77999984"></circle>
                                    <path d="M55.4399989,3.41999993 C57.2791071,3.41999993 58.944107,4.16544581 60.14933,5.37066873 C61.3545529,6.57589165 62.0999988,8.24089162 62.0999988,10.0799998 L62.0999988,10.0799998 L62.0999988,10.9799998 L20.5992462,10.9799998 L25.6226305,6.04658063 C27.5056334,4.35546256 29.9472515,3.41999993 32.4781763,3.41999993 L32.4781763,3.41999993 Z" id="Rectangle-Copy" stroke="#222222" stroke-width="1.07999998" fill="#43DEB1"></path>
                                    <line x1="38.1599992" y1="13.6799997" x2="33.1199993" y2="13.6799997" id="Line-2" stroke="#222222" stroke-width="1.07999998" stroke-linecap="round" stroke-linejoin="round"></line>
                                    <line x1="54.7199989" y1="13.6799997" x2="49.679999" y2="13.6799997" id="Line-2-Copy" stroke="#222222" stroke-width="1.07999998" stroke-linecap="round" stroke-linejoin="round"></line>
                                    <path d="M7.91999984,14.9399997 C8.16852798,14.9399997 8.39352797,15.0407356 8.55639593,15.2036036 C8.7192639,15.3664716 8.81999982,15.5914716 8.81999982,15.8399997 L8.81999982,15.8399997 L8.81999982,16.7399997 L1.55225844,16.7399997 L2.35540268,14.9399997 Z" id="Rectangle" stroke="#222222" stroke-width="1.07999998" fill="#43DEB1"></path>
                                    <polygon id="Path-2" fill="#FFFFFF" points="45.5807105 1.43999997 46.0799991 12.44 42.4799992 12.44 43.1521264 1.43999997"></polygon>
                                    <line x1="42.8932401" y1="2.87999994" x2="42.7867582" y2="11.5199998" id="Path-3" stroke="#222222" stroke-width="1.07999998"></line>
                                    <line x1="45.77324" y1="2.87999994" x2="45.6667582" y2="11.5199998" id="Path-3-Copy" stroke="#222222" stroke-width="1.07999998"></line>
                                </g>
                                <polyline id="Path-5" stroke="#222222" stroke-linejoin="round" points="-8.8817842e-16 6 4.43060524 6 22.3039381 12.6685815 28.6001565 16.096413 38.4292729 26.7194045 42.6190387 26.3975966 49.1740137 31.8249118 58.5100086 37.8158095 70.8672275 44.2420484 106.738745 51.4179808 125.846432 63 125.846432 64.8565998"></polyline>
                            </g>
                        </g>
                    </g>
                </g>
            </g>
        </g>
    </g>
</svg>