<svg xmlns="http://www.w3.org/2000/svg" xmlns:xlink="http://www.w3.org/1999/xlink" width="279.887" height="30.007" viewBox="0 0 279.887 30.007">
  <defs>
    <linearGradient id="linear-gradient" x1="0.5" y1="0.022" x2="0.5" y2="0.929" gradientUnits="objectBoundingBox">
      <stop offset="0" stop-color="#60bda0"/>
      <stop offset="1" stop-color="#4dc0ee"/>
    </linearGradient>
    <linearGradient id="linear-gradient-3" x1="0.5" y1="-0.827" x2="0.5" y2="1.692" xlink:href="#linear-gradient"/>
    <linearGradient id="linear-gradient-4" x1="0.5" y1="-2.581" x2="0.5" y2="0.671" xlink:href="#linear-gradient"/>
    <linearGradient id="linear-gradient-5" x1="0.5" y1="0.026" x2="0.5" y2="1.089" xlink:href="#linear-gradient"/>
    <linearGradient id="linear-gradient-6" x1="0.5" y1="0.029" x2="0.5" y2="1.223" xlink:href="#linear-gradient"/>
  </defs>
  <g id="logo" transform="translate(3742.545 780.18)">
    <path id="パス_3742" data-name="パス 3742" d="M-3740.191-754.806h0Z" fill="#223636"/>
    <g id="グループ_5388" data-name="グループ 5388">
      <path id="パス_3743" data-name="パス 3743" d="M-3536.2-774.735h13.128v2.993H-3536.2Zm12.1,23.088h-7.006v1.242h-3.539v-10.859h10.545Zm-.248-15.7h-10.191v-2.834h10.191Zm-10.191,1.592h10.191v2.866h-10.191Zm10.191-10.508h-9.979v-2.867h9.979Zm-6.758,17.992v3.63h3.4v-3.63Zm28.025,3.248v3.535h-19.886v-3.535h2.158v-15.094h3.928v15.094h2.689v-19.871h-7.785v-3.6h18.224v3.6h-6.3v7.515h6.122v3.567h-6.122v8.789Z" fill="#223636"/>
      <path id="パス_3744" data-name="パス 3744" d="M-3469.382-765.595a19.4,19.4,0,0,0,6.724,4.3,13.546,13.546,0,0,0-2.761,3.121,23.366,23.366,0,0,1-4.14-2.389c-.389,5.414-.884,7.866-1.84,8.821a4.316,4.316,0,0,1-2.8,1.21,34.141,34.141,0,0,1-4.6.064,7.042,7.042,0,0,0-1.239-3.535c1.592.1,3.043.128,3.751.128a1.75,1.75,0,0,0,1.274-.351c.5-.445.849-1.942,1.132-5.286h-5.556c-.955,4.331-3.29,7.42-11,9.2a10.48,10.48,0,0,0-2.336-3.248c6.193-1.178,8.1-3.184,8.917-5.955h-5.272v-1.178a27.433,27.433,0,0,1-4.353,2.484,18.5,18.5,0,0,0-2.583-3.089,22.374,22.374,0,0,0,6.688-4.3h-5.8V-769h8.705a23.862,23.862,0,0,0,1.521-2.547h-7.926v-3.344h3.821a22.667,22.667,0,0,0-2.193-3.726l3.5-1.146a19.486,19.486,0,0,1,2.76,4.49l-1.132.382h2.618a34.646,34.646,0,0,0,1.451-5.286l4.423.668c-.389,1.561-.849,3.121-1.38,4.618h4.919l-.531-.159a31.663,31.663,0,0,0,2.654-4.873l4.176,1.115c-.85,1.4-1.8,2.8-2.584,3.917h4.884v3.344h-8.175a23.264,23.264,0,0,0,1.451,2.547h8.67v3.408Zm-2.866,2.675a21.619,21.619,0,0,1-2.265-2.675h-9.448a22.789,22.789,0,0,1-2.406,2.675Zm-8.1-8.63c-.39.859-.85,1.719-1.31,2.547h5.025c-.425-.828-.814-1.656-1.168-2.547Z" fill="#223636"/>
    </g>
    <path id="パス_3745" data-name="パス 3745" d="M-3706.883-754.569h0Z" fill="#223636"/>
    <rect id="長方形_1941" data-name="長方形 1941" width="7.469" height="29.871" transform="translate(-3670.069 -780.18)" fill="#223636"/>
    <rect id="長方形_1942" data-name="長方形 1942" width="7.469" height="29.871" transform="translate(-3651.399 -780.18)" fill="#223636"/>
    <rect id="長方形_1943" data-name="長方形 1943" width="7.469" height="14.937" transform="translate(-3610.323 -780.18) rotate(90)" fill="#223636"/>
    <rect id="長方形_1944" data-name="長方形 1944" width="7.469" height="7.469" transform="translate(-3617.791 -768.851) rotate(90)" fill="#223636"/>
    <rect id="長方形_1945" data-name="長方形 1945" width="7.469" height="14.937" transform="translate(-3610.323 -757.778) rotate(90)" fill="#223636"/>
    <rect id="長方形_1946" data-name="長方形 1946" width="7.469" height="29.871" transform="translate(-3632.728 -780.18)" fill="url(#linear-gradient)"/>
    <rect id="長方形_1947" data-name="長方形 1947" width="7.469" height="14.937" transform="translate(-3576.714 -780.18) rotate(90)" fill="#223636"/>
    <rect id="長方形_1948" data-name="長方形 1948" width="7.469" height="7.469" transform="translate(-3584.182 -768.979) rotate(90)" fill="#223636"/>
    <rect id="長方形_1949" data-name="長方形 1949" width="7.469" height="14.937" transform="translate(-3576.714 -757.778) rotate(90)" fill="#223636"/>
    <rect id="長方形_1950" data-name="長方形 1950" width="7.469" height="29.871" transform="translate(-3599.12 -780.18)" fill="url(#linear-gradient)"/>
    <rect id="長方形_1951" data-name="長方形 1951" width="7.469" height="11.201" transform="translate(-3651.399 -768.979) rotate(90)" fill="url(#linear-gradient-3)"/>
    <path id="パス_3746" data-name="パス 3746" d="M-3558.043-757.778v-22.4h-7.468v29.87h18.67l-7.853-7.978A11.191,11.191,0,0,1-3558.043-757.778Z" fill="#223636"/>
    <path id="パス_3747" data-name="パス 3747" d="M-3735.57-761.665V-780.18l13.092,5.423Z" fill="#223636"/>
    <circle id="楕円形_2981" data-name="楕円形 2981" cx="3.781" cy="3.781" r="3.781" transform="translate(-3742.545 -757.737)" fill="url(#linear-gradient-4)"/>
    <path id="パス_3748" data-name="パス 3748" d="M-3696.273-770.849a5.654,5.654,0,0,1,4.01,1.661l6.6-6.6a14.954,14.954,0,0,0-10.608-4.394,15,15,0,0,0-15,15,14.958,14.958,0,0,0,4.4,10.609l6.6-6.6a5.654,5.654,0,0,1-1.661-4.01A5.672,5.672,0,0,1-3696.273-770.849Z" fill="url(#linear-gradient-5)"/>
    <path id="パス_3749" data-name="パス 3749" d="M-3690.6-765.177a5.671,5.671,0,0,1-5.671,5.671,5.656,5.656,0,0,1-4.011-1.661l-6.6,6.6a14.955,14.955,0,0,0,10.609,4.394,15,15,0,0,0,15-15h-9.332Z" fill="#223636"/>
    <g id="グループ_5389" data-name="グループ 5389">
      <path id="パス_3750" data-name="パス 3750" d="M-3558.043-780.18v22.4a11.2,11.2,0,0,0,11.2-11.2A11.2,11.2,0,0,0-3558.043-780.18Z" fill="url(#linear-gradient-6)"/>
    </g>
  </g>
</svg>
