<svg id="组_331" data-name="组 331" xmlns="http://www.w3.org/2000/svg" xmlns:xlink="http://www.w3.org/1999/xlink" width="182" height="107" viewBox="0 0 182 107">
  <defs>
    <clipPath id="clip-path">
      <rect id="矩形_132" data-name="矩形 132" width="182" height="107" fill="none"/>
    </clipPath>
    <clipPath id="clip-path-2">
      <rect id="矩形_129" data-name="矩形 129" width="34.823" height="34.825" transform="translate(14.084 68.863)" fill="none"/>
    </clipPath>
    <clipPath id="clip-path-3">
      <rect id="矩形_130" data-name="矩形 130" width="34.823" height="34.825" transform="translate(64.79 71.925) rotate(-40.694)" fill="none"/>
    </clipPath>
    <clipPath id="clip-path-4">
      <rect id="矩形_131" data-name="矩形 131" width="34.823" height="34.825" transform="translate(133.525 68.665)" fill="none"/>
    </clipPath>
  </defs>
  <g id="组_330" data-name="组 330" clip-path="url(#clip-path)">
    <path id="路径_43" data-name="路径 43" d="M143.424,40.126s4.1,23.634-.056,26.731a9.266,9.266,0,0,1-4.02,1.119c-2.385,2.4-8.509,4.02-8.509,4.02L135,78.306l-23.829-.132,7.636-37Z" fill="#fff"/>
    <path id="路径_44" data-name="路径 44" d="M115.752,45.131c5.068-13.609,19.428-14.547,23.189-11.543l4.323,2.456c7.636,2.025,9.044,11.175,8.058,16.243-.477,2.454-.974,6.228-.211,8.306l-3.543,1.9s-.375,3.1-3.191,3.472l1.294-2.554c-1.012-1.482-3.265-4.673-3.452-5.987L140.412,57c-2.393-3.73-2.6-9.808.117-13.749l-.281-1.784s-9.386,1.69-9.761,12.718a59.745,59.745,0,0,1-6.828-2.535c-2.182-.8-4.646-1.97-4.646-1.97l-.07,3.05-2.065-.375Z" fill="#43deb1"/>
    <path id="路径_45" data-name="路径 45" d="M74.486,65.523A43.863,43.863,0,0,0,67.305,44.68a24.438,24.438,0,0,0-6.4-6.84,13.066,13.066,0,0,0-8.9-2.379l-2.415.566c-5.725-.939-16.706,7.039-14.265,23.651l.282,2.44c.75,4.974-.188,7.978-1.328,9.322l8.736,21.931,32.1-3.566Z" fill="#fff"/>
    <path id="路径_46" data-name="路径 46" d="M48.09,58.364c4.505-5.208,4.4-6.992,4.124-15.58,3.8,7.6,8.024,8.447,12.488,9.386,2.879,1.85,2.418.036,2.418.036s1.779-2.95,3.114-1.115.388,6.619-.946,7.453-.861,8.59-4.744,11.127c1.748,3.24,3.912,3.8,3.912,3.8s.369,8.588-3.337,9.419c-5.866,1.7-11.174-2.168-11.174-2.168s2.284-2.045,1.191-7.041c-10.806.635-12.355-7.248-13.059-11.472,0,0,2.957-.282,6.013-3.848" fill="#fff"/>
    <path id="路径_47" data-name="路径 47" d="M112.486,36.572c3.95,8.294,8.241,38.216,8.241,38.216s5.987,4.614,12.848,1.087l6.861,5.671,11.45,18.609H109.511s-2.862-5.282-3.8-16.4c-3.058-12.374-7.707-31.513-4.547-45.6,0,0,7.372-9.874,11.322-1.58" fill="#fff"/>
    <path id="路径_48" data-name="路径 48" d="M50.53,85.393c8.723,3.754,12.156-1.923,12.156-1.923l3.981-.986L65.077,88.4l3.864-1.676L70.8,80.982c3.237,1.079,21.774-2.628,21.774-2.628,7.789,24.543-11.245,21.8-11.245,21.8H35.179Z" fill="#43deb1"/>
    <path id="路径_49" data-name="路径 49" d="M44.524,69.908c1.971,2.347,8.165,4.505,12.4,3.454" fill="none" stroke="#222" stroke-linecap="round" stroke-linejoin="round" stroke-width="1"/>
    <path id="路径_50" data-name="路径 50" d="M63.258,70.794c3.3-2.455,4.448-5.861,4.635-9.99" fill="none" stroke="#222" stroke-linecap="round" stroke-linejoin="round" stroke-width="1"/>
    <path id="路径_51" data-name="路径 51" d="M48.887,87.147l4.343-5.7a12.884,12.884,0,0,0,1.931-3.112,6.494,6.494,0,0,0-.024-4.648" fill="none" stroke="#222" stroke-linecap="round" stroke-linejoin="round" stroke-width="1"/>
    <path id="路径_52" data-name="路径 52" d="M64.544,69.67c.783,1.359,1.754,3.241,3.913,3.8" fill="none" stroke="#222" stroke-linecap="round" stroke-linejoin="round" stroke-width="1"/>
    <path id="路径_53" data-name="路径 53" d="M55.5,49.633a6.192,6.192,0,0,1,3.285-.92" fill="none" stroke="#222" stroke-linecap="round" stroke-linejoin="round" stroke-width="1"/>
    <path id="路径_54" data-name="路径 54" d="M46.259,53.295a6.212,6.212,0,0,0-2.774,1.985" fill="none" stroke="#222" stroke-linecap="round" stroke-linejoin="round" stroke-width="1"/>
    <path id="路径_55" data-name="路径 55" d="M50.336,42.705c2.381,5.38,1.79,13.312-2.246,15.658" fill="none" stroke="#222" stroke-linecap="round" stroke-linejoin="round" stroke-width="1"/>
    <path id="路径_56" data-name="路径 56" d="M49.058,46.1c-.4,10.577-4.441,12.736-5.379,16.491" fill="none" stroke="#222" stroke-linecap="round" stroke-linejoin="round" stroke-width="1"/>
    <path id="路径_57" data-name="路径 57" d="M43.815,48.888a25.8,25.8,0,0,0-1.262,16.421c.75,3.223,5.256,8.916,2.252,16.049" fill="none" stroke="#222" stroke-linecap="round" stroke-linejoin="round" stroke-width="1"/>
    <path id="路径_58" data-name="路径 58" d="M49.592,36.027c-5.725-.938-16.706,7.039-14.266,23.651" fill="none" stroke="#222" stroke-linecap="round" stroke-linejoin="round" stroke-width="1"/>
    <path id="路径_59" data-name="路径 59" d="M35.608,62.118c.75,4.974-.188,7.978-1.327,9.322" fill="none" stroke="#222" stroke-linecap="round" stroke-linejoin="round" stroke-width="1"/>
    <path id="路径_60" data-name="路径 60" d="M38.417,56.393c.938,9.573.193,14.359-1.5,17.363" fill="none" stroke="#222" stroke-linecap="round" stroke-linejoin="round" stroke-width="1"/>
    <path id="路径_61" data-name="路径 61" d="M49.553,73.079c.79,3.305.039,9.968-2.026,11.751" fill="none" stroke="#222" stroke-linecap="round" stroke-linejoin="round" stroke-width="1"/>
    <path id="路径_62" data-name="路径 62" d="M51.821,42.825c4.434,7.75,9.69,8.97,12.881,9.345" fill="none" stroke="#222" stroke-linecap="round" stroke-linejoin="round" stroke-width="1"/>
    <path id="路径_63" data-name="路径 63" d="M61.082,45.806c8.036,10.763,10.19,24.665,4,42.591" fill="none" stroke="#222" stroke-linecap="round" stroke-linejoin="round" stroke-width="1"/>
    <path id="路径_64" data-name="路径 64" d="M52.006,35.461a13.066,13.066,0,0,1,8.9,2.379,24.435,24.435,0,0,1,6.4,6.839,43.863,43.863,0,0,1,7.181,20.844" fill="none" stroke="#222" stroke-linecap="round" stroke-linejoin="round" stroke-width="1"/>
    <path id="路径_65" data-name="路径 65" d="M67.8,50.95c3.1-2.91,4.382,3.59,2.223,6.124" fill="none" stroke="#222" stroke-linecap="round" stroke-linejoin="round" stroke-width="1"/>
    <path id="路径_66" data-name="路径 66" d="M66.767,48.509A53.775,53.775,0,0,1,68.941,86.72" fill="none" stroke="#222" stroke-linecap="round" stroke-linejoin="round" stroke-width="1"/>
    <path id="路径_67" data-name="路径 67" d="M50.53,85.393c1.126,1.314,8.353,3.191,12.156-1.923" fill="none" stroke="#222" stroke-linecap="round" stroke-linejoin="round" stroke-width="1"/>
    <path id="路径_68" data-name="路径 68" d="M94.219,89.664c.7,3.378-2.394,11.544-12.893,10.491" fill="none" stroke="#222" stroke-linecap="round" stroke-linejoin="round" stroke-width="1"/>
    <path id="路径_69" data-name="路径 69" d="M60.808,56.4A1.359,1.359,0,1,1,59.031,55.3,1.487,1.487,0,0,1,60.808,56.4" fill="#222"/>
    <path id="路径_70" data-name="路径 70" d="M49.5,61.369a1.359,1.359,0,1,1-1.777-1.092A1.488,1.488,0,0,1,49.5,61.369" fill="#222"/>
    <path id="路径_71" data-name="路径 71" d="M55.581,61.663c.1.23-.115.553-.488.72s-.758.114-.861-.116.115-.553.487-.72.758-.114.862.116" fill="#222"/>
    <path id="路径_72" data-name="路径 72" d="M59.4,63.933a3.047,3.047,0,0,1-5.382,2.711" fill="none" stroke="#222" stroke-linecap="round" stroke-linejoin="round" stroke-width="1"/>
    <path id="路径_73" data-name="路径 73" d="M53.394,81.243c5.3,2.837,12.152,2.931,13.654.022" fill="none" stroke="#222" stroke-linecap="round" stroke-linejoin="round" stroke-width="1"/>
    <path id="路径_74" data-name="路径 74" d="M105.71,83.751c.281,4.927,2.252,13.447,3.8,16.4" fill="none" stroke="#222" stroke-linecap="round" stroke-linejoin="round" stroke-width="1"/>
    <path id="路径_75" data-name="路径 75" d="M113.735,39.687a213.925,213.925,0,0,1,6.34,31.774" fill="none" stroke="#222" stroke-linecap="round" stroke-linejoin="round" stroke-width="1"/>
    <path id="路径_76" data-name="路径 76" d="M128.455,71.583c3.933.625,8.719-1.487,11.735-4.461" fill="none" stroke="#222" stroke-linecap="round" stroke-linejoin="round" stroke-width="1"/>
    <path id="路径_77" data-name="路径 77" d="M142.978,62.429c3.91-.358,1.587,6.329-3.629,5.547" fill="none" stroke="#222" stroke-linecap="round" stroke-linejoin="round" stroke-width="1"/>
    <line id="直线_5" data-name="直线 5" x1="0.915" y2="2.253" transform="translate(127.953 57.495)" fill="none" stroke="#222" stroke-linecap="round" stroke-linejoin="round" stroke-width="1"/>
    <path id="路径_78" data-name="路径 78" d="M136.609,50.89a8.479,8.479,0,0,1,4,1.073" fill="none" stroke="#222" stroke-linecap="round" stroke-linejoin="round" stroke-width="1"/>
    <path id="路径_79" data-name="路径 79" d="M123.73,45.529a5.518,5.518,0,0,1,3.446,1.841" fill="none" stroke="#222" stroke-linecap="round" stroke-linejoin="round" stroke-width="1"/>
    <path id="路径_80" data-name="路径 80" d="M140.248,41.47c-7.039,1.971-9.085,7.535-9.761,12.717" fill="none" stroke="#222" stroke-linecap="round" stroke-linejoin="round" stroke-width="1"/>
    <path id="路径_81" data-name="路径 81" d="M130.206,44.121a15.247,15.247,0,0,0-2.252,10.207" fill="none" stroke="#222" stroke-linecap="round" stroke-linejoin="round" stroke-width="1"/>
    <path id="路径_82" data-name="路径 82" d="M128.657,39.757c-1.9,2.253-3.942,6.054-2.6,12.248" fill="none" stroke="#222" stroke-linecap="round" stroke-linejoin="round" stroke-width="1"/>
    <path id="路径_83" data-name="路径 83" d="M124.575,42.573c-1.479,2.041-2.014,6.116-.915,9.08" fill="none" stroke="#222" stroke-linecap="round" stroke-linejoin="round" stroke-width="1"/>
    <path id="路径_84" data-name="路径 84" d="M118.943,52.733c-.281-5.35,1.877-11.356,5.772-13.961" fill="none" stroke="#222" stroke-linecap="round" stroke-linejoin="round" stroke-width="1"/>
    <path id="路径_85" data-name="路径 85" d="M140.53,43.253c-2.722,3.942-2.511,10.019-.117,13.75" fill="none" stroke="#222" stroke-linecap="round" stroke-linejoin="round" stroke-width="1"/>
    <path id="路径_86" data-name="路径 86" d="M140.28,50.406c.948,4.657,2.209,9.478,5.392,13.006" fill="none" stroke="#222" stroke-linecap="round" stroke-linejoin="round" stroke-width="1"/>
    <path id="路径_87" data-name="路径 87" d="M141.751,34.985a4.779,4.779,0,0,1-1.2-3.922" fill="none" stroke="#222" stroke-linecap="round" stroke-linejoin="round" stroke-width="1"/>
    <path id="路径_88" data-name="路径 88" d="M138.942,33.587c-1.713-3.948-17.092-4.749-22.476,7.813" fill="none" stroke="#222" stroke-linecap="round" stroke-linejoin="round" stroke-width="1"/>
    <path id="路径_89" data-name="路径 89" d="M143.264,36.043c7.636,2.025,9.044,11.175,8.059,16.244-.477,2.453-.975,6.228-.211,8.305" fill="none" stroke="#222" stroke-linecap="round" stroke-linejoin="round" stroke-width="1"/>
    <path id="路径_90" data-name="路径 90" d="M148.275,57.94a9.711,9.711,0,0,0,1.147,3.639" fill="none" stroke="#222" stroke-linecap="round" stroke-linejoin="round" stroke-width="1"/>
    <path id="路径_91" data-name="路径 91" d="M147.8,61.508c-.352,3.449-2.463,4.435-3.7,4.668" fill="none" stroke="#222" stroke-linecap="round" stroke-linejoin="round" stroke-width="1"/>
    <path id="路径_92" data-name="路径 92" d="M120.707,73.931c.889,3.061,7.6,4.838,12.868,1.944" fill="none" stroke="#222" stroke-linecap="round" stroke-linejoin="round" stroke-width="1"/>
    <path id="路径_93" data-name="路径 93" d="M100.079,44a101.749,101.749,0,0,0,1.886,22.706" fill="none" stroke="#222" stroke-linecap="round" stroke-linejoin="round" stroke-width="1"/>
    <path id="路径_94" data-name="路径 94" d="M130.582,71.676a23.21,23.21,0,0,0,7.207,7.77" fill="none" stroke="#222" stroke-linecap="round" stroke-linejoin="round" stroke-width="1"/>
    <path id="路径_95" data-name="路径 95" d="M137.123,57.636a1.427,1.427,0,1,1-1.428-1.427,1.427,1.427,0,0,1,1.428,1.427" fill="#222"/>
    <path id="路径_96" data-name="路径 96" d="M125.016,53.835a1.427,1.427,0,1,1-1.427-1.427,1.427,1.427,0,0,1,1.427,1.427" fill="#222"/>
    <path id="路径_97" data-name="路径 97" d="M130.324,63.817c-.705,1.839-2.065,3.028-4.3,2.171s-2.452-2.65-1.747-4.489Z" fill="none" stroke="#222" stroke-linecap="round" stroke-linejoin="round" stroke-width="1"/>
    <line id="直线_6" data-name="直线 6" x2="4.075" y2="6.22" transform="translate(21.9 25.64)" fill="none" stroke="#222" stroke-linecap="round" stroke-linejoin="round" stroke-width="1"/>
    <line id="直线_7" data-name="直线 7" x2="12.427" y2="7.62" transform="translate(8.815 30.941)" fill="none" stroke="#222" stroke-linecap="round" stroke-linejoin="round" stroke-width="1"/>
    <line id="直线_8" data-name="直线 8" x2="8.485" y2="2.315" transform="translate(10.344 47.893)" fill="none" stroke="#222" stroke-linecap="round" stroke-linejoin="round" stroke-width="1"/>
    <line id="直线_9" data-name="直线 9" x1="5.14" y2="7.812" transform="translate(153.222 16.881)" fill="none" stroke="#222" stroke-linecap="round" stroke-linejoin="round" stroke-width="1"/>
    <line id="直线_10" data-name="直线 10" x1="12.821" y2="9.587" transform="translate(159.484 22.045)" fill="none" stroke="#222" stroke-linecap="round" stroke-linejoin="round" stroke-width="1"/>
    <line id="直线_11" data-name="直线 11" y1="0.286" x2="9.152" transform="translate(164.033 40.148)" fill="none" stroke="#222" stroke-linecap="round" stroke-linejoin="round" stroke-width="1"/>
    <rect id="矩形_120" data-name="矩形 120" width="3.942" height="4.223" transform="translate(9.418 65.7) rotate(-69.239)" fill="#43deb1"/>
    <rect id="矩形_121" data-name="矩形 121" width="3.942" height="4.224" transform="matrix(0.767, -0.641, 0.641, 0.767, 35.128, 22.437)" fill="#43deb1"/>
    <rect id="矩形_122" data-name="矩形 122" width="3.942" height="4.224" transform="matrix(0.767, -0.641, 0.641, 0.767, 35.128, 22.437)" fill="none" stroke="#222" stroke-linecap="round" stroke-linejoin="round" stroke-width="1"/>
    <rect id="矩形_123" data-name="矩形 123" width="4.224" height="3.942" transform="translate(55.056 14.092) rotate(-72.814)" fill="#43deb1"/>
    <rect id="矩形_124" data-name="矩形 124" width="3.941" height="4.224" transform="matrix(0.551, -0.834, 0.834, 0.551, 66.54, 28.623)" fill="#43deb1"/>
    <rect id="矩形_125" data-name="矩形 125" width="3.941" height="4.224" transform="matrix(0.551, -0.834, 0.834, 0.551, 66.54, 28.623)" fill="none" stroke="#222" stroke-linecap="round" stroke-linejoin="round" stroke-width="1"/>
    <rect id="矩形_126" data-name="矩形 126" width="4.224" height="3.941" transform="translate(136.656 18.812) rotate(-53.472)" fill="#43deb1"/>
    <rect id="矩形_127" data-name="矩形 127" width="4.223" height="3.941" transform="translate(166.631 58.118) rotate(-22.849)" fill="#43deb1"/>
    <rect id="矩形_128" data-name="矩形 128" width="4.223" height="3.941" transform="translate(166.631 58.118) rotate(-22.849)" fill="none" stroke="#222" stroke-linecap="round" stroke-linejoin="round" stroke-width="1"/>
    <g id="组_325" data-name="组 325">
      <g id="组_324" data-name="组 324" clip-path="url(#clip-path-2)">
        <path id="路径_98" data-name="路径 98" d="M46.208,86.276A14.712,14.712,0,1,1,31.5,71.565,14.711,14.711,0,0,1,46.208,86.276" fill="#43deb1"/>
        <line id="直线_12" data-name="直线 12" y1="2.994" x2="0.187" transform="translate(30.411 100.195)" fill="none" stroke="#222" stroke-linecap="round" stroke-linejoin="round" stroke-width="1"/>
        <line id="直线_13" data-name="直线 13" x1="0.584" y1="2.942" transform="translate(34.233 99.956)" fill="none" stroke="#222" stroke-linecap="round" stroke-linejoin="round" stroke-width="1"/>
        <line id="直线_14" data-name="直线 14" y1="2.842" x2="0.961" transform="translate(26.07 99.493)" fill="none" stroke="#fff" stroke-linecap="round" stroke-linejoin="round" stroke-width="1"/>
        <line id="直线_15" data-name="直线 15" x1="1.326" y1="2.691" transform="translate(37.677 98.782)" fill="none" stroke="#222" stroke-linecap="round" stroke-linejoin="round" stroke-width="1"/>
        <line id="直线_16" data-name="直线 16" y1="2.494" x2="1.667" transform="translate(22.1 97.887)" fill="none" stroke="#222" stroke-linecap="round" stroke-linejoin="round" stroke-width="1"/>
        <line id="直线_17" data-name="直线 17" x1="1.978" y1="2.256" transform="translate(40.698 96.757)" fill="none" stroke="#222" stroke-linecap="round" stroke-linejoin="round" stroke-width="1"/>
        <line id="直线_18" data-name="直线 18" y1="1.982" x2="2.252" transform="translate(18.774 95.489)" fill="none" stroke="#fff" stroke-linecap="round" stroke-linejoin="round" stroke-width="1"/>
        <line id="直线_19" data-name="直线 19" x1="0.206" y1="2.164" transform="translate(33.082 94.771)" fill="none" stroke="#222" stroke-linecap="round" stroke-linejoin="round" stroke-width="1"/>
        <line id="直线_20" data-name="直线 20" y1="2.059" x2="0.696" transform="translate(28.75 94.597)" fill="none" stroke="#fff" stroke-linecap="round" stroke-linejoin="round" stroke-width="1"/>
        <line id="直线_21" data-name="直线 21" y1="1.436" x2="1.632" transform="translate(23.936 91.828)" fill="none" stroke="#fff" stroke-linecap="round" stroke-linejoin="round" stroke-width="1"/>
        <line id="直线_22" data-name="直线 22" x1="2.494" y1="1.667" transform="translate(43.098 94.021)" fill="none" stroke="#fff" stroke-linecap="round" stroke-linejoin="round" stroke-width="1"/>
        <line id="直线_23" data-name="直线 23" y1="1.335" x2="2.687" transform="translate(16.31 92.468)" fill="none" stroke="#222" stroke-linecap="round" stroke-linejoin="round" stroke-width="1"/>
        <line id="直线_24" data-name="直线 24" x1="2.842" y1="0.961" transform="translate(44.707 90.759)" fill="none" stroke="#222" stroke-linecap="round" stroke-linejoin="round" stroke-width="1"/>
        <line id="直线_25" data-name="直线 25" y1="0.585" x2="2.942" transform="translate(14.88 89.029)" fill="none" stroke="#222" stroke-linecap="round" stroke-linejoin="round" stroke-width="1"/>
        <line id="直线_26" data-name="直线 26" x1="2.994" y1="0.193" transform="translate(45.414 87.189)" fill="none" stroke="#222" stroke-linecap="round" stroke-linejoin="round" stroke-width="1"/>
        <line id="直线_27" data-name="直线 27" x2="2.994" y2="0.186" transform="translate(14.584 85.209)" fill="none" stroke="#222" stroke-linecap="round" stroke-linejoin="round" stroke-width="1"/>
        <line id="直线_28" data-name="直线 28" x1="2.94" y2="0.594" transform="translate(45.166 82.902)" fill="none" stroke="#222" stroke-linecap="round" stroke-linejoin="round" stroke-width="1"/>
        <line id="直线_29" data-name="直线 29" x2="2.844" y2="0.957" transform="translate(15.433 80.868)" fill="none" stroke="#222" stroke-linecap="round" stroke-linejoin="round" stroke-width="1"/>
        <line id="直线_30" data-name="直线 30" x1="2.685" y2="1.338" transform="translate(43.983 78.719)" fill="none" stroke="#222" stroke-linecap="round" stroke-linejoin="round" stroke-width="1"/>
        <line id="直线_31" data-name="直线 31" x2="2.499" y2="1.659" transform="translate(17.381 76.898)" fill="none" stroke="#fff" stroke-linecap="round" stroke-linejoin="round" stroke-width="1"/>
        <line id="直线_32" data-name="直线 32" x1="2.248" y2="1.987" transform="translate(41.948 75.056)" fill="none" stroke="#fff" stroke-linecap="round" stroke-linejoin="round" stroke-width="1"/>
        <line id="直线_33" data-name="直线 33" x2="1.984" y2="2.25" transform="translate(20.289 73.566)" fill="none" stroke="#222" stroke-linecap="round" stroke-linejoin="round" stroke-width="1"/>
        <line id="直线_34" data-name="直线 34" x1="1.659" y2="2.499" transform="translate(39.203 72.152)" fill="none" stroke="#222" stroke-linecap="round" stroke-linejoin="round" stroke-width="1"/>
        <line id="直线_35" data-name="直线 35" x2="1.338" y2="2.685" transform="translate(23.955 71.099)" fill="none" stroke="#222" stroke-linecap="round" stroke-linejoin="round" stroke-width="1"/>
        <line id="直线_36" data-name="直线 36" x1="0.952" y2="2.845" transform="translate(35.936 70.207)" fill="none" stroke="#222" stroke-linecap="round" stroke-linejoin="round" stroke-width="1"/>
        <line id="直线_37" data-name="直线 37" x2="0.594" y2="2.94" transform="translate(28.139 69.664)" fill="none" stroke="#fff" stroke-linecap="round" stroke-linejoin="round" stroke-width="1"/>
        <line id="直线_38" data-name="直线 38" x1="0.185" y2="2.994" transform="translate(32.363 69.363)" fill="none" stroke="#fff" stroke-linecap="round" stroke-linejoin="round" stroke-width="1"/>
      </g>
    </g>
    <g id="组_327" data-name="组 327">
      <g id="组_326" data-name="组 326" clip-path="url(#clip-path-3)">
        <path id="路径_99" data-name="路径 99" d="M100.5,64.182A14.711,14.711,0,1,1,79.753,62.62,14.711,14.711,0,0,1,100.5,64.182" fill="#43deb1"/>
        <line id="直线_39" data-name="直线 39" x1="1.81" y1="2.392" transform="translate(97.739 84.913)" fill="none" stroke="#222" stroke-linecap="round" stroke-linejoin="round" stroke-width="1"/>
        <line id="直线_40" data-name="直线 40" x1="2.361" y1="1.85" transform="translate(100.339 82.362)" fill="none" stroke="#222" stroke-linecap="round" stroke-linejoin="round" stroke-width="1"/>
        <line id="直线_41" data-name="直线 41" x1="1.124" y1="2.781" transform="translate(94.577 86.707)" fill="none" stroke="#fff" stroke-linecap="round" stroke-linejoin="round" stroke-width="1"/>
        <line id="直线_42" data-name="直线 42" x1="2.76" y1="1.176" transform="translate(102.186 79.226)" fill="none" stroke="#222" stroke-linecap="round" stroke-linejoin="round" stroke-width="1"/>
        <line id="直线_43" data-name="直线 43" x1="0.362" y1="2.978" transform="translate(91.055 87.617)" fill="none" stroke="#222" stroke-linecap="round" stroke-linejoin="round" stroke-width="1"/>
        <line id="直线_44" data-name="直线 44" x1="2.971" y1="0.421" transform="translate(103.155 75.721)" fill="none" stroke="#222" stroke-linecap="round" stroke-linejoin="round" stroke-width="1"/>
        <line id="直线_45" data-name="直线 45" y1="2.971" x2="0.415" transform="translate(86.999 87.586)" fill="none" stroke="#fff" stroke-linecap="round" stroke-linejoin="round" stroke-width="1"/>
        <line id="直线_46" data-name="直线 46" x1="1.567" y1="1.506" transform="translate(96.086 79.181)" fill="none" stroke="#222" stroke-linecap="round" stroke-linejoin="round" stroke-width="1"/>
        <line id="直线_47" data-name="直线 47" x1="0.815" y1="2.015" transform="translate(93.216 81.42)" fill="none" stroke="#fff" stroke-linecap="round" stroke-linejoin="round" stroke-width="1"/>
        <line id="直线_48" data-name="直线 48" y1="2.153" x2="0.301" transform="translate(88.17 81.849)" fill="none" stroke="#fff" stroke-linecap="round" stroke-linejoin="round" stroke-width="1"/>
        <line id="直线_49" data-name="直线 49" x1="2.978" y2="0.362" transform="translate(103.191 71.72)" fill="none" stroke="#fff" stroke-linecap="round" stroke-linejoin="round" stroke-width="1"/>
        <line id="直线_50" data-name="直线 50" y1="2.764" x2="1.167" transform="translate(82.739 86.619)" fill="none" stroke="#222" stroke-linecap="round" stroke-linejoin="round" stroke-width="1"/>
        <line id="直线_51" data-name="直线 51" x1="2.781" y2="1.124" transform="translate(102.285 67.435)" fill="none" stroke="#222" stroke-linecap="round" stroke-linejoin="round" stroke-width="1"/>
        <line id="直线_52" data-name="直线 52" y1="2.362" x2="1.849" transform="translate(78.924 84.778)" fill="none" stroke="#222" stroke-linecap="round" stroke-linejoin="round" stroke-width="1"/>
        <line id="直线_53" data-name="直线 53" x1="2.396" y2="1.806" transform="translate(100.493 63.587)" fill="none" stroke="#222" stroke-linecap="round" stroke-linejoin="round" stroke-width="1"/>
        <line id="直线_54" data-name="直线 54" y1="1.811" x2="2.391" transform="translate(75.827 82.181)" fill="none" stroke="#222" stroke-linecap="round" stroke-linejoin="round" stroke-width="1"/>
        <line id="直线_55" data-name="直线 55" x1="1.842" y2="2.367" transform="translate(97.897 60.386)" fill="none" stroke="#222" stroke-linecap="round" stroke-linejoin="round" stroke-width="1"/>
        <line id="直线_56" data-name="直线 56" y1="1.129" x2="2.78" transform="translate(73.64 79.019)" fill="none" stroke="#222" stroke-linecap="round" stroke-linejoin="round" stroke-width="1"/>
        <line id="直线_57" data-name="直线 57" x1="1.163" y2="2.765" transform="translate(94.758 58.153)" fill="none" stroke="#222" stroke-linecap="round" stroke-linejoin="round" stroke-width="1"/>
        <line id="直线_58" data-name="直线 58" y1="0.372" x2="2.976" transform="translate(72.528 75.496)" fill="none" stroke="#fff" stroke-linecap="round" stroke-linejoin="round" stroke-width="1"/>
        <line id="直线_59" data-name="直线 59" x1="0.409" y2="2.972" transform="translate(91.249 56.987)" fill="none" stroke="#fff" stroke-linecap="round" stroke-linejoin="round" stroke-width="1"/>
        <line id="直线_60" data-name="直线 60" x2="2.971" y2="0.412" transform="translate(72.561 71.445)" fill="none" stroke="#222" stroke-linecap="round" stroke-linejoin="round" stroke-width="1"/>
        <line id="直线_61" data-name="直线 61" x2="0.372" y2="2.976" transform="translate(87.237 56.959)" fill="none" stroke="#222" stroke-linecap="round" stroke-linejoin="round" stroke-width="1"/>
        <line id="直线_62" data-name="直线 62" x2="2.765" y2="1.163" transform="translate(73.731 67.184)" fill="none" stroke="#222" stroke-linecap="round" stroke-linejoin="round" stroke-width="1"/>
        <line id="直线_63" data-name="直线 63" x2="1.133" y2="2.778" transform="translate(82.956 58.075)" fill="none" stroke="#222" stroke-linecap="round" stroke-linejoin="round" stroke-width="1"/>
        <line id="直线_64" data-name="直线 64" x2="2.367" y2="1.842" transform="translate(75.968 63.368)" fill="none" stroke="#fff" stroke-linecap="round" stroke-linejoin="round" stroke-width="1"/>
        <line id="直线_65" data-name="直线 65" x2="1.812" y2="2.391" transform="translate(79.115 60.265)" fill="none" stroke="#fff" stroke-linecap="round" stroke-linejoin="round" stroke-width="1"/>
      </g>
    </g>
    <path id="路径_100" data-name="路径 100" d="M121.407,23.752a17.78,17.78,0,1,1-17.78-17.78,17.78,17.78,0,0,1,17.78,17.78" fill="#43deb1"/>
    <line id="直线_66" data-name="直线 66" y1="3.619" x2="0.227" transform="translate(102.315 40.573)" fill="none" stroke="#222" stroke-linecap="round" stroke-linejoin="round" stroke-width="1"/>
    <line id="直线_67" data-name="直线 67" x1="0.706" y1="3.556" transform="translate(106.934 40.284)" fill="none" stroke="#222" stroke-linecap="round" stroke-linejoin="round" stroke-width="1"/>
    <line id="直线_68" data-name="直线 68" y1="3.435" x2="1.161" transform="translate(97.069 39.725)" fill="none" stroke="#222" stroke-linecap="round" stroke-linejoin="round" stroke-width="1"/>
    <line id="直线_69" data-name="直线 69" x1="1.603" y1="3.253" transform="translate(111.097 38.866)" fill="none" stroke="#222" stroke-linecap="round" stroke-linejoin="round" stroke-width="1"/>
    <line id="直线_70" data-name="直线 70" y1="3.014" x2="2.015" transform="translate(92.271 37.785)" fill="none" stroke="#fff" stroke-linecap="round" stroke-linejoin="round" stroke-width="1"/>
    <line id="直线_71" data-name="直线 71" x1="2.39" y1="2.727" transform="translate(114.749 36.418)" fill="none" stroke="#222" stroke-linecap="round" stroke-linejoin="round" stroke-width="1"/>
    <line id="直线_72" data-name="直线 72" y1="2.396" x2="2.722" transform="translate(88.252 34.886)" fill="none" stroke="#fff" stroke-linecap="round" stroke-linejoin="round" stroke-width="1"/>
    <line id="直线_73" data-name="直线 73" x1="3.014" y1="2.015" transform="translate(117.649 33.111)" fill="none" stroke="#fff" stroke-linecap="round" stroke-linejoin="round" stroke-width="1"/>
    <line id="直线_74" data-name="直线 74" y1="1.613" x2="3.247" transform="translate(85.274 31.235)" fill="none" stroke="#222" stroke-linecap="round" stroke-linejoin="round" stroke-width="1"/>
    <line id="直线_75" data-name="直线 75" x1="3.435" y1="1.162" transform="translate(119.594 29.17)" fill="none" stroke="#222" stroke-linecap="round" stroke-linejoin="round" stroke-width="1"/>
    <line id="直线_76" data-name="直线 76" y1="0.707" x2="3.556" transform="translate(83.546 27.079)" fill="none" stroke="#222" stroke-linecap="round" stroke-linejoin="round" stroke-width="1"/>
    <line id="直线_77" data-name="直线 77" x1="3.619" y1="0.233" transform="translate(120.447 24.856)" fill="none" stroke="#fff" stroke-linecap="round" stroke-linejoin="round" stroke-width="1"/>
    <line id="直线_78" data-name="直线 78" x2="3.619" y2="0.224" transform="translate(83.188 22.462)" fill="none" stroke="#fff" stroke-linecap="round" stroke-linejoin="round" stroke-width="1"/>
    <line id="直线_79" data-name="直线 79" x1="3.554" y2="0.717" transform="translate(120.148 19.675)" fill="none" stroke="#222" stroke-linecap="round" stroke-linejoin="round" stroke-width="1"/>
    <line id="直线_80" data-name="直线 80" x2="3.437" y2="1.156" transform="translate(84.214 17.216)" fill="none" stroke="#222" stroke-linecap="round" stroke-linejoin="round" stroke-width="1"/>
    <line id="直线_81" data-name="直线 81" x1="3.245" y2="1.617" transform="translate(118.719 14.619)" fill="none" stroke="#222" stroke-linecap="round" stroke-linejoin="round" stroke-width="1"/>
    <line id="直线_82" data-name="直线 82" x2="3.021" y2="2.005" transform="translate(86.568 12.418)" fill="none" stroke="#222" stroke-linecap="round" stroke-linejoin="round" stroke-width="1"/>
    <line id="直线_83" data-name="直线 83" x1="2.717" y2="2.402" transform="translate(116.259 10.191)" fill="none" stroke="#222" stroke-linecap="round" stroke-linejoin="round" stroke-width="1"/>
    <line id="直线_84" data-name="直线 84" x2="2.398" y2="2.719" transform="translate(90.083 8.391)" fill="none" stroke="#222" stroke-linecap="round" stroke-linejoin="round" stroke-width="1"/>
    <line id="直线_85" data-name="直线 85" x1="2.005" y2="3.02" transform="translate(112.942 6.682)" fill="none" stroke="#fff" stroke-linecap="round" stroke-linejoin="round" stroke-width="1"/>
    <line id="直线_86" data-name="直线 86" x2="1.617" y2="3.244" transform="translate(94.512 5.409)" fill="none" stroke="#222" stroke-linecap="round" stroke-linejoin="round" stroke-width="1"/>
    <line id="直线_87" data-name="直线 87" x1="1.15" y2="3.438" transform="translate(108.994 4.331)" fill="none" stroke="#fff" stroke-linecap="round" stroke-linejoin="round" stroke-width="1"/>
    <line id="直线_88" data-name="直线 88" x2="0.718" y2="3.554" transform="translate(99.57 3.675)" fill="none" stroke="#fff" stroke-linecap="round" stroke-linejoin="round" stroke-width="1"/>
    <line id="直线_89" data-name="直线 89" x1="0.223" y2="3.619" transform="translate(104.676 3.311)" fill="none" stroke="#222" stroke-linecap="round" stroke-linejoin="round" stroke-width="1"/>
    <line id="直线_90" data-name="直线 90" x2="0.448" y2="2.373" transform="translate(105.199 32.818)" fill="none" stroke="#222" stroke-linecap="round" stroke-linejoin="round" stroke-width="1"/>
    <line id="直线_91" data-name="直线 91" x2="1.378" y2="1.982" transform="translate(109.024 31.51)" fill="none" stroke="#fff" stroke-linecap="round" stroke-linejoin="round" stroke-width="1"/>
    <line id="直线_92" data-name="直线 92" x2="2.184" y2="1.029" transform="translate(112.308 27.359)" fill="none" stroke="#fff" stroke-linecap="round" stroke-linejoin="round" stroke-width="1"/>
    <g id="组_329" data-name="组 329">
      <g id="组_328" data-name="组 328" clip-path="url(#clip-path-4)">
        <path id="路径_101" data-name="路径 101" d="M165.648,86.078a14.711,14.711,0,1,1-14.711-14.711,14.711,14.711,0,0,1,14.711,14.711" fill="#43deb1"/>
        <line id="直线_93" data-name="直线 93" y1="2.994" x2="0.187" transform="translate(149.851 99.996)" fill="none" stroke="#222" stroke-linecap="round" stroke-linejoin="round" stroke-width="1"/>
        <line id="直线_94" data-name="直线 94" x1="0.584" y1="2.942" transform="translate(153.673 99.757)" fill="none" stroke="#222" stroke-linecap="round" stroke-linejoin="round" stroke-width="1"/>
        <line id="直线_95" data-name="直线 95" y1="2.842" x2="0.961" transform="translate(145.51 99.295)" fill="none" stroke="#fff" stroke-linecap="round" stroke-linejoin="round" stroke-width="1"/>
        <line id="直线_96" data-name="直线 96" x1="1.326" y1="2.691" transform="translate(157.117 98.584)" fill="none" stroke="#222" stroke-linecap="round" stroke-linejoin="round" stroke-width="1"/>
        <line id="直线_97" data-name="直线 97" y1="2.494" x2="1.667" transform="translate(141.54 97.689)" fill="none" stroke="#222" stroke-linecap="round" stroke-linejoin="round" stroke-width="1"/>
        <line id="直线_98" data-name="直线 98" x1="1.978" y1="2.256" transform="translate(160.138 96.558)" fill="none" stroke="#222" stroke-linecap="round" stroke-linejoin="round" stroke-width="1"/>
        <line id="直线_99" data-name="直线 99" y1="1.982" x2="2.252" transform="translate(138.214 95.29)" fill="none" stroke="#fff" stroke-linecap="round" stroke-linejoin="round" stroke-width="1"/>
        <line id="直线_100" data-name="直线 100" x1="0.206" y1="2.164" transform="translate(152.522 94.572)" fill="none" stroke="#222" stroke-linecap="round" stroke-linejoin="round" stroke-width="1"/>
        <line id="直线_101" data-name="直线 101" y1="2.059" x2="0.696" transform="translate(148.19 94.399)" fill="none" stroke="#fff" stroke-linecap="round" stroke-linejoin="round" stroke-width="1"/>
        <line id="直线_102" data-name="直线 102" y1="1.436" x2="1.632" transform="translate(143.376 91.63)" fill="none" stroke="#fff" stroke-linecap="round" stroke-linejoin="round" stroke-width="1"/>
        <line id="直线_103" data-name="直线 103" x1="2.494" y1="1.667" transform="translate(162.538 93.822)" fill="none" stroke="#fff" stroke-linecap="round" stroke-linejoin="round" stroke-width="1"/>
        <line id="直线_104" data-name="直线 104" y1="1.335" x2="2.687" transform="translate(135.75 92.27)" fill="none" stroke="#222" stroke-linecap="round" stroke-linejoin="round" stroke-width="1"/>
        <line id="直线_105" data-name="直线 105" x1="2.842" y1="0.961" transform="translate(164.147 90.561)" fill="none" stroke="#222" stroke-linecap="round" stroke-linejoin="round" stroke-width="1"/>
        <line id="直线_106" data-name="直线 106" y1="0.585" x2="2.942" transform="translate(134.32 88.831)" fill="none" stroke="#222" stroke-linecap="round" stroke-linejoin="round" stroke-width="1"/>
        <line id="直线_107" data-name="直线 107" x1="2.994" y1="0.193" transform="translate(164.854 86.991)" fill="none" stroke="#222" stroke-linecap="round" stroke-linejoin="round" stroke-width="1"/>
        <line id="直线_108" data-name="直线 108" x2="2.994" y2="0.186" transform="translate(134.025 85.01)" fill="none" stroke="#222" stroke-linecap="round" stroke-linejoin="round" stroke-width="1"/>
        <line id="直线_109" data-name="直线 109" x1="2.94" y2="0.594" transform="translate(164.607 82.704)" fill="none" stroke="#222" stroke-linecap="round" stroke-linejoin="round" stroke-width="1"/>
        <line id="直线_110" data-name="直线 110" x2="2.844" y2="0.957" transform="translate(134.873 80.67)" fill="none" stroke="#222" stroke-linecap="round" stroke-linejoin="round" stroke-width="1"/>
        <line id="直线_111" data-name="直线 111" x1="2.685" y2="1.338" transform="translate(163.423 78.521)" fill="none" stroke="#222" stroke-linecap="round" stroke-linejoin="round" stroke-width="1"/>
        <line id="直线_112" data-name="直线 112" x2="2.499" y2="1.659" transform="translate(136.821 76.7)" fill="none" stroke="#fff" stroke-linecap="round" stroke-linejoin="round" stroke-width="1"/>
        <line id="直线_113" data-name="直线 113" x1="2.248" y2="1.987" transform="translate(161.388 74.857)" fill="none" stroke="#fff" stroke-linecap="round" stroke-linejoin="round" stroke-width="1"/>
        <line id="直线_114" data-name="直线 114" x2="1.984" y2="2.25" transform="translate(139.729 73.368)" fill="none" stroke="#222" stroke-linecap="round" stroke-linejoin="round" stroke-width="1"/>
        <line id="直线_115" data-name="直线 115" x1="1.659" y2="2.499" transform="translate(158.643 71.954)" fill="none" stroke="#222" stroke-linecap="round" stroke-linejoin="round" stroke-width="1"/>
        <line id="直线_116" data-name="直线 116" x2="1.338" y2="2.685" transform="translate(143.395 70.9)" fill="none" stroke="#222" stroke-linecap="round" stroke-linejoin="round" stroke-width="1"/>
        <line id="直线_117" data-name="直线 117" x1="0.952" y2="2.845" transform="translate(155.376 70.009)" fill="none" stroke="#222" stroke-linecap="round" stroke-linejoin="round" stroke-width="1"/>
        <line id="直线_118" data-name="直线 118" x2="0.594" y2="2.94" transform="translate(147.579 69.466)" fill="none" stroke="#fff" stroke-linecap="round" stroke-linejoin="round" stroke-width="1"/>
        <line id="直线_119" data-name="直线 119" x1="0.185" y2="2.994" transform="translate(151.803 69.165)" fill="none" stroke="#fff" stroke-linecap="round" stroke-linejoin="round" stroke-width="1"/>
      </g>
    </g>
  </g>
</svg>
